# xmcd CD database file
#
# Track frame offsets:
#	150
#	19822
#	37455
#	55447
#	75550
#	95445
#	113607
#	131520
#	153785
#	174482
#	193505
#	215687
#
# Disc length: 3180 seconds
#
# Revision: 0
# Processed by: cddbd v1.4PL0 Copyright (c) Steve Scherf et al.
# Submitted via: CDex 1.50beta8
#
DISCID=9f0c6a0c
DTITLE=Various Artist - Kombo - Cookin' Out
DYEAR=2001
DGENRE=Jazz
TTITLE0=Tip Of The Hat
TTITLE1=Low Rider
TTITLE2=Tight
TTITLE3=Dirty Martin
TTITLE4=Stoned Soul Picnic
TTITLE5=Cookin' Out
TTITLE6=Gettin' It Done
TTITLE7=Use Me/ Green Eye Lady
TTITLE8=Simmer Down
TTITLE9=Line Of March
TTITLE10=Hush
TTITLE11=Beat 66
EXTD=YEAR: 2001
EXTT0=
EXTT1=
EXTT2=
EXTT3=
EXTT4=
EXTT5=
EXTT6=
EXTT7=
EXTT8=
EXTT9=
EXTT10=
EXTT11=
PLAYORDER=
